<?xml version="1.0" encoding="utf-8"?>
<!-- Generator: Adobe Illustrator 17.0.2, SVG Export Plug-In . SVG Version: 6.00 Build 0)  -->
<!DOCTYPE svg PUBLIC "-//W3C//DTD SVG 1.1//EN" "http://www.w3.org/Graphics/SVG/1.1/DTD/svg11.dtd">
<svg version="1.1" id="Layer_1" xmlns="http://www.w3.org/2000/svg" xmlns:xlink="http://www.w3.org/1999/xlink" x="0px" y="0px"
	 width="342.69px" height="89.17px" viewBox="182.08 35.47 342.69 89.17"
	 xml:space="preserve">
<g>
	<path fill="#010202" d="M219.052,124.803c-5.506,0-10.533-0.981-15.08-2.941c-4.549-1.959-8.447-4.774-11.701-8.447
		c-3.254-3.67-5.777-8.134-7.57-13.39c-1.795-5.256-2.691-11.22-2.691-17.896c0-6.674,0.897-12.618,2.691-17.832
		c1.793-5.213,4.316-9.593,7.57-13.14c3.254-3.545,7.152-6.257,11.701-8.134c4.547-1.877,9.574-2.816,15.08-2.816
		c5.506,0,10.531,0.939,15.08,2.816c4.545,1.877,8.445,4.611,11.699,8.197c3.254,3.588,5.777,7.99,7.572,13.203
		c1.793,5.215,2.69,11.118,2.69,17.707c0,6.676-0.897,12.64-2.69,17.896c-1.795,5.256-4.318,9.72-7.572,13.39
		c-3.254,3.673-7.154,6.488-11.699,8.447C229.583,123.821,224.558,124.803,219.052,124.803z M219.052,108.909
		c5.588,0,10.012-2.397,13.266-7.195c3.252-4.797,4.879-11.325,4.879-19.585c0-8.175-1.627-14.558-4.879-19.146
		c-3.254-4.587-7.678-6.883-13.266-6.883c-5.59,0-10.012,2.295-13.266,6.883c-3.254,4.589-4.881,10.972-4.881,19.146
		c0,8.26,1.627,14.788,4.881,19.585C209.04,106.512,213.462,108.909,219.052,108.909z"/>
	<path fill="#010202" d="M262.599,83.005c0-6.758,1.043-12.784,3.129-18.083c2.086-5.297,4.9-9.781,8.447-13.453
		c3.545-3.67,7.676-6.464,12.389-8.385c4.713-1.918,9.699-2.878,14.955-2.878c5.088,0,9.697,1.064,13.828,3.191
		c4.129,2.128,7.57,4.611,10.324,7.446l-10.137,11.388c-2.086-1.918-4.193-3.42-6.32-4.505c-2.127-1.083-4.609-1.626-7.445-1.626
		c-2.838,0-5.486,0.606-7.947,1.814c-2.461,1.211-4.609,2.941-6.443,5.193c-1.836,2.252-3.275,5.005-4.318,8.259
		c-1.043,3.253-1.565,6.926-1.565,11.012c0,8.428,1.795,14.955,5.383,19.585c3.584,4.631,8.383,6.945,14.391,6.945
		c3.336,0,6.256-0.667,8.76-2.002c2.502-1.334,4.754-3.086,6.758-5.256l10.137,11.138c-3.422,4.004-7.322,7.008-11.701,9.01
		c-4.381,2.003-9.117,3.004-14.205,3.004c-5.256,0-10.219-0.897-14.891-2.69c-4.674-1.793-8.76-4.443-12.264-7.947
		c-3.504-3.504-6.258-7.862-8.26-13.077C263.601,95.875,262.599,89.847,262.599,83.005z"/>
	<path fill="#010202" d="M333.054,106.031c0-6.508,2.752-11.596,8.258-15.268c5.508-3.67,14.393-6.132,26.656-7.383
		c-0.168-2.754-1.002-4.943-2.502-6.57c-1.502-1.627-3.924-2.44-7.26-2.44c-2.67,0-5.34,0.501-8.008,1.502
		c-2.672,1.001-5.508,2.378-8.51,4.13l-6.508-12.139c4.004-2.419,8.197-4.38,12.576-5.882c4.381-1.501,9.029-2.252,13.953-2.252
		c8.01,0,14.121,2.274,18.334,6.82c4.211,4.548,6.32,11.618,6.32,21.212v35.54h-15.018l-1.377-6.382h-0.375
		c-2.672,2.336-5.486,4.235-8.447,5.693c-2.963,1.459-6.195,2.19-9.699,2.19c-2.836,0-5.381-0.481-7.633-1.439
		s-4.172-2.294-5.756-4.005c-1.586-1.709-2.816-3.691-3.693-5.944C333.491,111.162,333.054,108.702,333.054,106.031z
		 M350.573,104.654c0,2.003,0.645,3.484,1.94,4.442c1.293,0.961,3.023,1.439,5.193,1.439c2.168,0,4.004-0.457,5.506-1.376
		c1.502-0.918,3.086-2.21,4.756-3.88V94.391c-6.592,0.919-11.137,2.253-13.641,4.005
		C351.825,100.15,350.573,102.235,350.573,104.654z"/>
	<path fill="#010202" d="M397.124,61.23h15.018l1.252,8.009h0.5c2.586-2.585,5.338-4.818,8.26-6.695
		c2.92-1.877,6.424-2.816,10.512-2.816c4.422,0,7.988,0.897,10.699,2.69c2.711,1.795,4.859,4.36,6.445,7.696
		c2.754-2.835,5.65-5.275,8.697-7.321c3.045-2.043,6.652-3.066,10.826-3.066c6.672,0,11.574,2.233,14.703,6.695
		c3.129,4.464,4.693,10.574,4.693,18.333v38.544h-18.396V87.133c0-4.505-0.606-7.591-1.814-9.261
		c-1.211-1.668-3.15-2.503-5.818-2.503c-3.088,0-6.633,2.003-10.639,6.007v41.923h-18.394V87.133c0-4.505-0.607-7.591-1.815-9.261
		c-1.211-1.668-3.15-2.503-5.82-2.503c-3.172,0-6.676,2.003-10.512,6.007v41.923h-18.397L397.124,61.23L397.124,61.23z"/>
	<path fill="#010202" d="M499.366,35.576h18.396v69.203c0,1.921,0.354,3.254,1.062,4.005c0.709,0.751,1.439,1.126,2.191,1.126
		c0.416,0,0.769,0,1.062,0c0.291,0,0.69-0.082,1.19-0.25l2.252,13.641c-1,0.416-2.273,0.771-3.816,1.063
		c-1.545,0.292-3.359,0.438-5.443,0.438c-3.172,0-5.842-0.501-8.01-1.502c-2.17-1.001-3.9-2.397-5.193-4.192
		c-1.295-1.793-2.232-3.961-2.816-6.507c-0.584-2.544-0.875-5.401-0.875-8.572L499.366,35.576L499.366,35.576z"/>
</g>
</svg>
